<svg xmlns="http://www.w3.org/2000/svg" viewBox="0 0 32 32">
  <defs>
    <linearGradient id="deerGradient" x1="0%" y1="0%" x2="100%" y2="100%">
      <stop offset="0%" stop-color="#f97316"/>
      <stop offset="100%" stop-color="#ec4899"/>
    </linearGradient>
  </defs>
  <!-- Deer head silhouette -->
  <path d="M16 4 L12 8 L8 6 L6 10 L10 12 L8 14 L10 16 L8 18 L12 17 L16 20 L20 17 L22 18 L24 16 L22 14 L24 12 L22 10 L26 6 L24 8 L20 4 L16 4Z" fill="url(#deerGradient)"/>
  <!-- Face details -->
  <ellipse cx="12" cy="14" rx="1.5" ry="2" fill="#fff"/>
  <ellipse cx="20" cy="14" rx="1.5" ry="2" fill="#fff"/>
  <ellipse cx="12" cy="14.5" rx="0.8" ry="1" fill="#1e293b"/>
  <ellipse cx="20" cy="14.5" rx="0.8" ry="1" fill="#1e293b"/>
  <!-- Nose -->
  <ellipse cx="16" cy="18" rx="2" ry="1.5" fill="#fff" opacity="0.8"/>
  <!-- Spot pattern (梅花 - plum blossom pattern) -->
  <circle cx="10" cy="10" r="1" fill="#fff" opacity="0.6"/>
  <circle cx="14" cy="8" r="0.8" fill="#fff" opacity="0.5"/>
  <circle cx="18" cy="8" r="0.8" fill="#fff" opacity="0.5"/>
  <circle cx="22" cy="10" r="1" fill="#fff" opacity="0.6"/>
</svg>